Coordinates
version=1
nRows=8
nColumns=63
inDegrees=yes

Units are S.I. units (second, meters, Newtons, ...)
If the header above contains a line with 'inDegrees', this indicates whether rotational values are in degrees (yes) or radians (no).

endheader
time	pelvis_tilt	pelvis_list	pelvis_rotation	pelvis_tx	pelvis_ty	pelvis_tz	hip_flexion_r	hip_adduction_r	hip_rotation_r	knee_angle_r	knee_angle_r_beta	ankle_angle_r	subtalar_angle_r	mtp_angle_r	hip_flexion_l	hip_adduction_l	hip_rotation_l	knee_angle_l	knee_angle_l_beta	ankle_angle_l	subtalar_angle_l	mtp_angle_l	L5_S1_Flex_Ext	L5_S1_Lat_Bending	L5_S1_axial_rotation	L4_L5_Flex_Ext	L4_L5_Lat_Bending	L4_L5_axial_rotation	L3_L4_Flex_Ext	L3_L4_Lat_Bending	L3_L4_axial_rotation	L2_L3_Flex_Ext	L2_L3_Lat_Bending	L2_L3_axial_rotation	L1_L2_Flex_Ext	L1_L2_Lat_Bending	L1_L2_axial_rotation	L1_T12_Flex_Ext	L1_T12_Lat_Bending	L1_T12_axial_rotation	Abs_r3	Abs_r2	Abs_r1	Abs_t1	Abs_t2	neck_flexion	neck_bending	neck_rotation	arm_flex_r	arm_add_r	arm_rot_r	elbow_flex_r	pro_sup_r	wrist_flex_r	wrist_dev_r	arm_flex_l	arm_add_l	arm_rot_l	elbow_flex_l	pro_sup_l	wrist_flex_l	wrist_dev_l
    120.56000000	     51.44777081	     -5.99158617	   -147.52230690	      2.45550032	      1.13883256	      0.42406286	     -2.47006305	    -12.49476456	    -17.53649098	     27.27332811	      0.47600937	     15.13657439	     -7.84566833	     25.88677002	     -6.09973322	     -5.90372482	    -18.72571214	     20.12870470	      0.35131217	     16.52778700	      8.27407797	     21.14738677	     -6.60736623	      1.65793219	      1.46068263	    -12.27053983	      2.20504982	      1.55197529	    -10.85524198	      4.03109633	      1.55197529	     -7.55155887	      4.03109633	      1.27809730	     -6.13560028	      3.38085533	      1.18680464	     -3.77544906	      2.56813697	      1.09551197	    -47.19575625	     18.75486056	      8.12387857	      0.00000000	      0.00000000	      6.71653178	     13.42828118	      9.03212682	    -10.38764646	    -30.37530308	    -14.59298446	     69.06318733	     71.96512101	     -3.41367396	      6.23888382	      2.43443905	    -71.02812573	    -59.10167513	     85.03317433	     58.53233106	    -14.31914513	     -5.54004129
    120.64000000	     53.65135597	     -5.32267038	   -148.65170163	      2.43875518	      1.14623995	      0.42263481	     -2.70419785	    -11.39195632	    -18.71598116	     21.67169489	      0.37824243	     12.33825415	     -4.84060622	     26.51309435	     -4.52035341	     -5.80995652	    -19.67191301	     18.56979894	      0.32410413	     14.45890577	      8.84565951	     24.07950312	     -5.99980174	      1.52967534	      1.40747970	    -11.14223181	      2.03446820	      1.49544718	     -9.85707427	      3.71925262	      1.49544718	     -6.85717341	      3.71925262	      1.23154474	     -5.57141589	      3.11931395	      1.14357726	     -3.42828671	      2.36946710	      1.05560978	    -42.85598383	     17.30399336	      7.82797986	      0.00000000	      0.00000000	      7.80521145	     14.17793934	     12.51172912	    -11.26594339	    -30.49630706	    -12.63152024	     69.33354648	     72.54578047	     -4.02103685	      5.61241188	    -14.47939393	    -69.99476384	    -67.77679042	    112.70629677	     59.96092066	     -6.28178488	     -5.26520218
    120.72000000	     52.96784665	     -5.48220777	   -148.16391505	      2.38008688	      1.13874095	      0.41799067	     -4.17679234	    -10.88114270	    -18.26767499	     20.63856737	      0.36021095	     13.82796120	     -6.39534212	     26.15217838	     -4.85419020	     -5.88892984	    -18.41894338	     19.30823211	      0.33699222	     16.12636881	      8.28659352	     23.55274463	     -5.73638319	      1.25183694	      1.36390955	    -10.65303723	      1.66494313	      1.44915390	     -9.42430395	      3.04371634	      1.44915390	     -6.55611235	      3.04371634	      1.19342086	     -5.32680543	      2.55274589	      1.10817651	     -3.27776936	      1.93909542	      1.02293216	    -40.97441152	     14.16102985	      7.58565576	      0.00000000	      0.00000000	      9.20297637	     10.04017873	     14.11229895	    -10.27296735	    -30.40165781	     -5.35754603	     66.87862637	     73.85624279	     -1.90177591	      4.54159524	     -7.71470601	    -75.46255011	    -53.51643342	     99.02928452	     59.33566260	    -10.32053283	     -0.03787353
    120.80000000	     52.18324164	     -5.09812664	   -148.10526331	      2.46949569	      1.13082401	      0.41008275	     -5.82734620	     -9.54507651	    -19.48231711	     19.78343519	      0.34528608	     14.60897530	     -4.84940856	     25.80106786	     -6.68291504	     -7.55900304	    -18.68706390	     19.39134119	      0.33844275	     17.41725892	      9.43848045	     22.82914355	     -5.28521482	      1.15102630	      1.13057926	     -9.81517244	      1.53086497	      1.20124047	     -8.68307942	      2.79860534	      1.20124047	     -6.04047201	      2.79860534	      0.98925685	     -4.90785048	      2.34717282	      0.91859565	     -3.01997175	      1.78293973	      0.84793445	    -37.75176091	     13.02063966	      6.28794268	      0.00000000	      0.00000000	     11.43341140	     10.90041499	     17.91567166	    -12.86126920	    -29.29351307	     -4.21219915	     67.40883583	     74.54946319	     -1.10831600	      4.70635208	    -40.13369420	    -67.75751992	    -64.41076869	    115.35952399	     59.74015669	      1.86048946	      5.14549000
    120.88000000	     50.90925189	     -5.12736758	   -148.31633078	      2.62930774	      1.11384571	      0.39484121	     -8.59784307	     -7.54597927	    -20.25245861	     19.35799710	      0.33786079	     15.88264360	     -4.65481176	     25.27164010	     -8.67215997	     -8.97683161	    -17.55697203	     20.51879429	      0.35812052	     18.67109662	     10.54869533	     20.84455914	     -4.91256190	      1.02604185	      0.90040410	     -9.12311871	      1.36463566	      0.95667935	     -8.07084795	      2.49471816	      0.95667935	     -5.61456700	      2.49471816	      0.78785358	     -4.56180498	      2.09230455	      0.73157833	     -2.80703787	      1.58933883	      0.67530307	    -35.08993843	     11.60679065	      5.00777746	      0.00000000	      0.00000000	     13.36527403	     12.10854347	     15.09899585	    -13.53071086	    -30.19675748	     -1.58555705	     67.63669622	     76.94292720	     -0.49235432	      4.66521619	    -56.96293693	    -62.67225080	    -27.31937085	    119.94147430	     61.14454008	      7.64609111	     14.05761713
    120.96000000	     47.22865566	     -5.99705272	   -149.42502162	      2.44734170	      1.09244415	      0.37393030	    -11.84393320	     -5.44662985	    -17.99529810	     21.60041478	      0.37699836	     19.83320862	     -4.28767905	     22.83415374	    -12.10400561	    -10.38923621	    -16.12184738	     22.85969067	      0.39897687	     21.55716541	      6.81778078	     17.39322601	     -4.99763205	      0.88757140	      0.74779611	     -9.28110249	      1.18046996	      0.79453337	     -8.21060970	      2.15804111	      0.79453337	     -5.71179368	      2.15804111	      0.65432160	     -4.64080113	      1.80993560	      0.60758434	     -2.85564696	      1.37484810	      0.56084708	    -35.69758600	     10.04038521	      4.15901763	      0.00000000	      0.00000000	     16.38022386	      6.95529599	     15.18659361	    -12.69143761	    -29.38765707	     -1.22966282	     68.05123414	     77.74011468	      0.51226241	      5.53211454	    -33.44807185	    -70.66065929	    -60.59276278	    107.75901057	     67.03943416	     -1.46004093	      6.82347020
    121.04000000	     45.90430115	     -7.01583210	   -149.65819208	      2.40284600	      1.07796812	      0.34855611	    -14.64311734	     -3.97450285	    -18.27126446	     20.78624799	      0.36278847	     21.41743593	     -2.38741934	     21.35438338	    -13.74387045	    -12.22175545	    -16.23687378	     24.54229374	      0.42834383	     22.27254472	      7.50625804	     16.64563079	     -4.81188824	      0.71589130	      0.66736725	     -8.93615764	      0.95213543	      0.70907771	     -7.90545118	      1.74061812	      0.70907771	     -5.49950706	      1.74061812	      0.58394635	     -4.46831942	      1.45984555	      0.54223589	     -2.74951294	      1.10891563	      0.50052544	    -34.37083648	      8.09830561	      3.71169645	      0.00000000	      0.00000000	     18.70850971	      4.22155982	     13.42775949	    -12.60026742	    -28.46073673	     -2.38874423	     68.77849546	     79.57675386	     -0.15086887	      5.02897889	     -7.60710758	    -76.39765245	    -55.08550447	    102.04632845	     62.36243612	     -6.83457039	      4.73984182
    121.12000000	     49.23535127	     -6.10857866	   -151.85529812	      2.31960379	      1.08361243	      0.32425316	    -12.89713443	     -3.11191280	    -21.95185448	     16.17042378	      0.28222714	     17.87675674	      3.22986289	     22.92644452	     -9.78844421	    -12.72702284	    -17.27267081	     23.68296860	      0.41334578	     18.09562508	      7.48331476	     19.34835932	     -4.15687520	      0.62110440	      0.55158767	     -7.71973294	      0.82606885	      0.58606190	     -6.82933027	      1.51015324	      0.58606190	     -4.75089267	      1.51015324	      0.48263921	     -3.86007431	      1.26655610	      0.44816498	     -2.37523849	      0.96209072	      0.41369075	    -29.69214388	      7.02605721	      3.06776513	      0.00000000	      0.00000000	     15.85106399	      4.68515357	     11.49008194	    -14.18978057	    -27.78164676	     -2.51506161	     72.31983519	     80.59178811	     -1.09582084	      6.93741108	    -11.75480119	    -75.45836000	    -56.88105737	     99.98563736	     62.95159264	     -6.44547427	      2.79991412
